<?xml version="1.0" encoding="utf-8"?>
<!-- Generator: Adobe Illustrator 27.5.0, SVG Export Plug-In . SVG Version: 6.00 Build 0)  -->
<svg version="1.1" xmlns="http://www.w3.org/2000/svg" xmlns:xlink="http://www.w3.org/1999/xlink" x="0px" y="0px"
	 viewBox="0 0 750 500" style="enable-background:new 0 0 750 500;" xml:space="preserve">
<g id="BACKGROUND">
	<linearGradient id="SVGID_1_" gradientUnits="userSpaceOnUse" x1="374.5205" y1="462.9853" x2="375.511" y2="23.0603">
		<stop  offset="0.2772" style="stop-color:#A0DCFF"/>
		<stop  offset="1" style="stop-color:#2896FF"/>
	</linearGradient>
	<rect style="fill:url(#SVGID_1_);" width="750" height="500"/>
</g>
<g id="OBJECTS">
	<g>
		<defs>
			<rect id="SVGID_00000062189875038609893000000013421404155768673684_" width="749.138" height="499.827"/>
		</defs>
		<clipPath id="SVGID_00000005255592745859698110000012895296128768023437_">
			<use xlink:href="#SVGID_00000062189875038609893000000013421404155768673684_"  style="overflow:visible;"/>
		</clipPath>
		
			<linearGradient id="SVGID_00000172407284509917164420000008492895999790037412_" gradientUnits="userSpaceOnUse" x1="237.5378" y1="300.6158" x2="237.5378" y2="500">
			<stop  offset="0" style="stop-color:#A0DCFF"/>
			<stop  offset="1" style="stop-color:#91D3FF;stop-opacity:0"/>
		</linearGradient>
		
			<path style="clip-path:url(#SVGID_00000005255592745859698110000012895296128768023437_);fill:url(#SVGID_00000172407284509917164420000008492895999790037412_);" d="
			M496.586,467.749c9.705-11.255,15.474-26.001,15.123-42.109c-0.699-32.112-26.356-58.907-58.414-60.894
			c-36.267-2.248-66.381,26.5-66.381,62.282c0,0.448,0.024,0.891,0.034,1.337c-7.89-8.871-19.357-14.491-32.163-14.491
			c-3.356,0-6.607,0.422-9.742,1.148c-2.732-28.262-26.528-50.361-55.498-50.398c0.011-0.478,0.036-0.953,0.036-1.434
			c0-34.559-28.016-62.575-62.575-62.575c-27.915,0-51.551,18.283-59.612,43.524c-16.008-27.333-46.346-45.254-80.716-43.392
			c-43.506,2.357-79.135,37.041-82.661,80.468c-0.979,12.062,0.52,23.646,3.987,34.343c-14.416,6.186-24.517,20.501-24.517,37.181
			c0,9.858,3.534,18.885,9.394,25.903c-32.339,2.579-54.712,8.123-54.712,14.548c0,8.887,598.737,10.47,598.737-3.758
			C536.906,480.328,520.831,472.331,496.586,467.749z"/>
		
			<linearGradient id="SVGID_00000027605528705841367630000016609129198662199690_" gradientUnits="userSpaceOnUse" x1="609.0933" y1="274.838" x2="609.0933" y2="474.2222">
			<stop  offset="0" style="stop-color:#A0DCFF"/>
			<stop  offset="1" style="stop-color:#91D3FF;stop-opacity:0"/>
		</linearGradient>
		
			<path style="clip-path:url(#SVGID_00000005255592745859698110000012895296128768023437_);fill:url(#SVGID_00000027605528705841367630000016609129198662199690_);" d="
			M868.142,441.971c9.705-11.255,15.474-26.001,15.123-42.109c-0.699-32.112-26.356-58.907-58.414-60.894
			c-36.267-2.248-66.381,26.5-66.381,62.282c0,0.448,0.025,0.891,0.034,1.337c-7.89-8.871-19.357-14.491-32.164-14.491
			c-3.356,0-6.607,0.422-9.742,1.148c-2.732-28.263-26.528-50.362-55.498-50.398c0.011-0.478,0.036-0.953,0.036-1.434
			c0-34.559-28.016-62.575-62.575-62.575c-27.915,0-51.551,18.283-59.612,43.524c-16.008-27.333-46.346-45.254-80.716-43.392
			c-43.506,2.357-79.135,37.041-82.661,80.468c-0.979,12.062,0.52,23.646,3.987,34.343c-14.415,6.186-24.517,20.5-24.517,37.181
			c0,9.858,3.534,18.885,9.393,25.903c-32.339,2.579-54.712,8.123-54.712,14.548c0,8.887,598.737,10.47,598.737-3.758
			C908.462,454.55,892.386,446.553,868.142,441.971z"/>
		
			<linearGradient id="SVGID_00000085940384448952676350000002169178598212284345_" gradientUnits="userSpaceOnUse" x1="122.7145" y1="121.1672" x2="301.561" y2="121.1672">
			<stop  offset="0" style="stop-color:#A0DCFF"/>
			<stop  offset="1" style="stop-color:#91D3FF;stop-opacity:0"/>
		</linearGradient>
		
			<path style="clip-path:url(#SVGID_00000005255592745859698110000012895296128768023437_);fill:url(#SVGID_00000085940384448952676350000002169178598212284345_);" d="
			M296.154,139.525c-1.902-1.213-3.121-3.18-3.58-5.389c-1.668-8.024-13.742-14.563-19.834-17.388
			c-2.134-0.99-3.991-2.495-5.377-4.396c-7.234-9.926-19.331-14.691-31.061-12.835c-4.497,0.712-9.074-0.698-12.557-3.63
			c-7.004-5.896-16.042-9.451-25.915-9.451c-17.068,0-31.646,10.62-37.514,25.609c-3.898-2.796-8.662-4.46-13.825-4.46
			c-17.823,0-29.188,31.043-21.151,46.744c-0.897,2.346,176.221,3.039,176.221-4.958
			C301.561,145.228,299.404,141.596,296.154,139.525z"/>
		
			<linearGradient id="SVGID_00000002367641210285256860000003080109882175919753_" gradientUnits="userSpaceOnUse" x1="100.5715" y1="180.3764" x2="100.5715" y2="87.8357">
			<stop  offset="0" style="stop-color:#A0DCFF"/>
			<stop  offset="1" style="stop-color:#FFFFFF"/>
		</linearGradient>
		
			<path style="clip-path:url(#SVGID_00000005255592745859698110000012895296128768023437_);fill:url(#SVGID_00000002367641210285256860000003080109882175919753_);" d="
			M235.761,186.573c6.123,0,11.385-4.662,11.78-10.773c0.003-0.044,0.006-0.089,0.008-0.133c0.296-5.378-2.371-10.15-6.515-12.846
			c-2.356-1.533-3.918-3.98-4.488-6.733c-3.113-15.052-17.594-25.006-32.51-22.972c-3.898,0.532-7.619-2-8.491-5.836
			c-4.008-17.643-19.779-30.813-38.635-30.813c-4.609,0-9.035,0.787-13.149,2.234c-2.295,0.807-4.796,0.385-6.899-0.838
			c-3.113-1.811-6.94-1.833-10.049-0.211c-3.195,1.667-7.085,0.92-9.589-1.672c-9.006-9.321-21.631-15.119-35.616-15.119
			c-15.075,0-28.569,6.741-37.653,17.365c-1.762,2.061-4.27,3.347-6.979,3.481C21.168,102.49,9.041,115.85,9.262,131.263
			c0.058,4.014-2.235,7.632-5.885,9.302c-6.992,3.198-12.769,8.588-16.454,15.293c-1.356,2.467-3.771,4.152-6.53,4.709
			c-6.662,1.344-12.322,5.704-15.358,11.768c-6.409,0.473-11.464,5.809-11.464,12.339c0,0.648,0.064,1.279,0.159,1.899H235.761z"/>
		
			<linearGradient id="SVGID_00000093877167697452897150000016898635027402446754_" gradientUnits="userSpaceOnUse" x1="151.3216" y1="314.9777" x2="151.3216" y2="513.0011">
			<stop  offset="0" style="stop-color:#FFFFFF"/>
			<stop  offset="1" style="stop-color:#91D3FF;stop-opacity:0"/>
		</linearGradient>
		
			<path style="clip-path:url(#SVGID_00000005255592745859698110000012895296128768023437_);fill:url(#SVGID_00000093877167697452897150000016898635027402446754_);" d="
			M324.375,432.604c-5.186-2.82-9.178-7.46-11.069-13.052c-8.621-25.498-32.728-43.858-61.137-43.858
			c-3.837,0-7.596,0.335-11.248,0.978c-16.105,2.835-32.548-2.808-42.982-15.4c-11.965-14.441-30.035-23.639-50.254-23.639
			c-25.05,0-46.795,14.121-57.725,34.835c-3.477,6.589-10.471,10.455-17.921,10.442c-0.045,0-0.091,0-0.136,0
			c-38.026,0-69.506,28.003-74.957,64.51c-23.419,1.541-41.791,21.562-40.643,45.624c1.055,22.12,18.94,40.159,41.051,41.392
			c12.846,0.716,24.561-4.14,32.969-12.363c11.94,7.851,26.222,12.433,41.58,12.433c8.698,0,17.044-1.484,24.824-4.181
			c10.008,23.982,33.675,40.841,61.285,40.841c36.664,0,66.385-29.722,66.385-66.385c0-2.166-0.112-4.306-0.315-6.418
			c8.492,4.111,18.02,6.418,28.087,6.418c8.254,0,16.138-1.566,23.394-4.39c7.814,7.293,18.401,11.655,30.012,11.307
			c22.032-0.661,40.051-18.608,40.792-40.638C346.926,454.473,337.885,439.952,324.375,432.604z"/>
		
			<linearGradient id="SVGID_00000127741005131459562160000018226155195009244597_" gradientUnits="userSpaceOnUse" x1="589.7879" y1="316.2718" x2="589.7879" y2="574.0895">
			<stop  offset="0" style="stop-color:#FFFFFF"/>
			<stop  offset="1" style="stop-color:#91D3FF;stop-opacity:0"/>
		</linearGradient>
		
			<path style="clip-path:url(#SVGID_00000005255592745859698110000012895296128768023437_);fill:url(#SVGID_00000127741005131459562160000018226155195009244597_);" d="
			M783.833,500.962c2.219-34.693-20.704-67.005-55.66-75.427c-1.404-0.338-2.809-0.633-4.212-0.886
			c-22.775-4.101-43.114-16.949-55.537-36.473c-9.886-15.536-25.572-27.407-44.89-32.061c-27.483-6.622-55.073,3.113-72.553,22.938
			c-5.573,6.32-14.281,8.749-22.469,6.761c-0.05-0.012-0.1-0.024-0.149-0.036c-32.179-7.753-64.489,3.79-84.771,27.184
			c-10.044,11.585-22.73,20.753-37.381,25.274c-16.366,5.05-29.667,18.511-33.615,36.548c-5.456,24.93,9.408,50.277,33.847,57.626
			c13.914,4.184,28.059,1.951,39.464-4.853c11.032,11.777,25.499,20.585,42.36,24.647c9.548,2.301,19.104,2.879,28.358,1.976
			c4.644,28.976,26.167,53.743,56.478,61.046c40.25,9.697,80.741-15.071,90.438-55.321c0.573-2.378,1.016-4.756,1.352-7.13
			c8.235,6.759,18.085,11.813,29.137,14.475c9.062,2.183,18.131,2.549,26.844,1.368c6.95,10.528,18.069,18.341,31.708,20.684
			c23.858,4.099,47.289-10.789,53.77-34.113C812.381,533.485,802.399,511.379,783.833,500.962z"/>
		
			<linearGradient id="SVGID_00000004546721620963988530000002323394481511498147_" gradientUnits="userSpaceOnUse" x1="643.1203" y1="246.8508" x2="801.0542" y2="246.8508">
			<stop  offset="0" style="stop-color:#A0DCFF"/>
			<stop  offset="1" style="stop-color:#91D3FF;stop-opacity:0"/>
		</linearGradient>
		
			<path style="clip-path:url(#SVGID_00000005255592745859698110000012895296128768023437_);fill:url(#SVGID_00000004546721620963988530000002323394481511498147_);" d="
			M775.559,272.278c1.48-3.022,2.313-6.417,2.313-10.009c0-7.826-3.947-14.729-9.957-18.833
			c-2.16-18.525-17.896-32.904-37.001-32.904c-18.488,0-33.822,13.467-36.75,31.124c-3.694-1.653-7.857-2.445-12.241-2.094
			c-11.572,0.928-21.141,9.945-22.713,21.447c-0.544,3.982-0.13,7.804,1.02,11.292c-9.7,0.671-17.111,4.225-17.111,8.521
			c0,4.775,157.934,1.352,157.934-2.205C801.054,275.446,790.047,272.812,775.559,272.278z"/>
		
			<linearGradient id="SVGID_00000124132807134774023830000007373756208016362898_" gradientUnits="userSpaceOnUse" x1="54.1381" y1="324.0373" x2="54.1381" y2="264.3301">
			<stop  offset="0" style="stop-color:#A0DCFF"/>
			<stop  offset="1" style="stop-color:#FFFFFF"/>
		</linearGradient>
		
			<path style="clip-path:url(#SVGID_00000005255592745859698110000012895296128768023437_);fill:url(#SVGID_00000124132807134774023830000007373756208016362898_);" d="
			M124.249,308.95c-1.145,0-2.269,0.032-3.37,0.091c4.84-13.578-5.136-28.605-20.255-28.605c-4.666,0-8.972,1.504-12.494,4.031
			c-5.303-13.546-18.479-23.144-33.904-23.144c-8.922,0-17.091,3.213-23.421,8.542c-3.148,2.65-7.284,3.924-11.349,3.281
			c-10.604-1.677-21.54,2.632-28.077,11.609c-1.249,1.715-2.924,3.071-4.849,3.963c-5.504,2.552-16.421,8.464-17.929,15.717
			c-0.415,1.997-1.519,3.775-3.239,4.872c-2.936,1.873-4.883,5.154-4.883,8.894c0,7.228,187.321,1.37,187.321-3.442
			C147.799,309.893,137.255,308.95,124.249,308.95z"/>
		
			<linearGradient id="SVGID_00000098203188836966678510000012103071485223403955_" gradientUnits="userSpaceOnUse" x1="-104.2347" y1="6.0751" x2="83.0865" y2="6.0751">
			<stop  offset="0" style="stop-color:#A0DCFF"/>
			<stop  offset="1" style="stop-color:#FFFFFF"/>
		</linearGradient>
		
			<path style="clip-path:url(#SVGID_00000005255592745859698110000012895296128768023437_);fill:url(#SVGID_00000098203188836966678510000012103071485223403955_);" d="
			M59.537,23.569c-1.145,0-2.269,0.032-3.37,0.091c4.84-13.578-5.136-28.605-20.256-28.605c-4.666,0-8.972,1.504-12.494,4.031
			C18.113-14.46,4.938-24.058-10.487-24.058c-8.922,0-17.091,3.213-23.421,8.541c-3.148,2.65-7.284,3.924-11.349,3.281
			c-10.604-1.678-21.54,2.632-28.077,11.609c-1.249,1.715-2.924,3.071-4.849,3.963c-5.504,2.552-16.421,8.463-17.929,15.717
			c-0.415,1.997-1.519,3.775-3.239,4.872c-2.935,1.873-4.883,5.154-4.883,8.895c0,7.228,187.321,1.37,187.321-3.442
			C83.086,24.512,72.543,23.569,59.537,23.569z"/>
		<path style="clip-path:url(#SVGID_00000005255592745859698110000012895296128768023437_);fill:#FFFFFF;" d="M763.111,509.669
			c1.911-3.902,2.988-8.288,2.988-12.926c0-10.108-5.097-19.023-12.859-24.322c-2.789-23.924-23.113-42.495-47.786-42.495
			c-23.877,0-43.681,17.392-47.463,40.196c-4.77-2.135-10.147-3.158-15.809-2.704c-14.945,1.198-27.304,12.844-29.334,27.699
			c-0.703,5.143-0.167,10.078,1.318,14.583c-12.528,0.867-22.098,5.457-22.098,11.005c0,6.166,11.809,11.165,26.377,11.165
			c5.628,0,10.832-0.752,15.115-2.023c3.507,1.306,7.3,2.023,11.262,2.023c3.148,0,6.19-0.451,9.066-1.292
			c14.973-4.377,30.563-6.484,46.061-4.715c1.807,0.206,3.644,0.312,5.506,0.312c2.763,0,5.47-0.235,8.104-0.685
			c5.572-0.952,11.283-1.205,16.805,0.005c2.031,0.445,4.141,0.68,6.305,0.68c1.883,0,3.723-0.184,5.508-0.522
			c4.34,0.337,9.036,0.522,13.941,0.522c22.049,0,39.923-3.724,39.923-8.318C796.038,513.761,781.822,510.359,763.111,509.669z"/>
		
			<linearGradient id="SVGID_00000073696778756796128540000009928858205704769968_" gradientUnits="userSpaceOnUse" x1="808.1071" y1="336.9798" x2="808.1071" y2="201.4282">
			<stop  offset="0" style="stop-color:#A0DCFF"/>
			<stop  offset="1" style="stop-color:#FFFFFF"/>
		</linearGradient>
		
			<path style="clip-path:url(#SVGID_00000005255592745859698110000012895296128768023437_);fill:url(#SVGID_00000073696778756796128540000009928858205704769968_);" d="
			M944.122,303.27c-3.028-15.16-17.57-25.209-32.549-23.165c-3.898,0.532-7.619-2-8.491-5.836
			c-4.008-17.643-19.779-30.813-38.635-30.813c-4.609,0-9.035,0.787-13.149,2.234c-2.295,0.807-4.796,0.385-6.899-0.838
			c-3.113-1.811-6.94-1.833-10.049-0.211c-3.195,1.667-7.085,0.92-9.589-1.672c-9.006-9.32-21.631-15.119-35.616-15.119
			c-15.075,0-28.569,6.741-37.653,17.366c-1.762,2.061-4.27,3.346-6.979,3.48c-15.808,0.782-27.935,14.142-27.713,29.556
			c0.058,4.014-2.235,7.632-5.885,9.301c-6.992,3.198-12.769,8.588-16.454,15.293c-1.356,2.467-3.77,4.152-6.529,4.709
			c-6.662,1.344-12.322,5.704-15.358,11.768c-6.409,0.473-11.464,5.81-11.464,12.339c0,6.704,279.021,4.731,281.42,4.439
			c6.824-0.832,12.179-6.582,12.557-13.446c0.295-5.354-2.346-10.106-6.457-12.809C946.307,308.321,944.666,305.993,944.122,303.27z
			"/>
		
			<linearGradient id="SVGID_00000003074869909567479830000016984871173897675967_" gradientUnits="userSpaceOnUse" x1="132.6542" y1="535.6461" x2="132.6542" y2="413.9717">
			<stop  offset="0" style="stop-color:#A0DCFF"/>
			<stop  offset="1" style="stop-color:#FFFFFF"/>
		</linearGradient>
		
			<path style="clip-path:url(#SVGID_00000005255592745859698110000012895296128768023437_);fill:url(#SVGID_00000003074869909567479830000016984871173897675967_);" d="
			M369.447,543.693c-4.065-26.424-28.415-44.904-54.451-42.527c-6.775,0.619-13.01-4.041-14.22-10.735
			c-5.567-30.789-31.8-54.757-64.377-56.208c-7.963-0.355-15.669,0.665-22.889,2.848c-4.027,1.218-8.316,0.297-11.855-1.979
			c-5.238-3.368-11.848-3.701-17.346-1.138c-5.648,2.634-12.311,1.044-16.438-3.626c-14.842-16.796-36.208-27.786-60.369-28.862
			c-26.045-1.16-49.876,9.447-66.389,27.104c-3.203,3.425-7.635,5.453-12.325,5.476c-27.372,0.135-49.351,22.282-50.154,48.929
			c-0.209,6.939-4.448,13.013-10.884,15.617c-12.326,4.987-22.721,13.854-29.604,25.155c-2.532,4.157-6.834,6.884-11.643,7.633
			c-11.614,1.809-21.728,8.906-27.439,19.15c-11.108,0.323-20.254,9.155-20.756,20.435c-0.516,11.583,8.237,21.275,19.415,22.28
			c3.361,0.302,6.479,1.755,8.968,4.033c10.252,9.377,24.692,12.311,37.586,8.094c4.13-1.351,8.707-0.716,12.317,1.703
			c14.568,9.759,32.411,12.705,49.026,8.604c4.721-1.165,9.74-0.188,13.421,2.988c14.681,12.67,35.398,13.982,51.357,5.056
			c12.338-6.901,27.195-6.843,39.767-0.378c17.676,9.09,38.705,9.482,56.647,1.327c17.228-7.831,36.573-9.043,54.989-4.692
			c3.355,0.793,6.831,1.284,10.402,1.443c13.638,0.607,26.346-3.733,36.395-11.431c11.251-8.619,25.692-12.378,39.5-9.183
			c10.125,2.342,20.871,1.541,30.69-2.519c4.415-1.826,9.355-1.735,13.754,0.129c3.516,1.49,7.456,2.195,11.623,1.875
			c11.853-0.912,21.548-10.434,22.729-22.264c0.921-9.227-3.276-17.64-10.17-22.626C372.833,552.588,370.178,548.44,369.447,543.693
			z"/>
	</g>
	<g>
		
			<linearGradient id="SVGID_00000169527407770574261540000002017332752928240056_" gradientUnits="userSpaceOnUse" x1="409.7422" y1="-6.6631" x2="409.7422" y2="102.5049">
			<stop  offset="0" style="stop-color:#A0DCFF"/>
			<stop  offset="1" style="stop-color:#91D3FF;stop-opacity:0"/>
		</linearGradient>
		<path style="fill:url(#SVGID_00000169527407770574261540000002017332752928240056_);" d="M496.595,70.361
			c-0.249-13.785-13.036-24.895-28.785-24.895c-2.913,0-5.724,0.384-8.375,1.09c-5.153-15.025-19.393-25.83-36.166-25.83
			c-17.788,0-32.736,12.147-37.008,28.598c-4.757-2.442-10.379-3.858-16.408-3.858c-14.508,0-26.676,8.175-30.014,19.201
			c-23.906,0.845-42.585,8.093-42.585,16.911c0,13.532,224.975,3.466,224.975-1.813C522.229,75.068,511.169,71.165,496.595,70.361z"
			/>
		
			<linearGradient id="SVGID_00000135655537085378850470000000294604185866274471_" gradientUnits="userSpaceOnUse" x1="511.7307" y1="159.1078" x2="511.7307" y2="244.4256">
			<stop  offset="0" style="stop-color:#A0DCFF"/>
			<stop  offset="1" style="stop-color:#91D3FF;stop-opacity:0"/>
		</linearGradient>
		<path style="fill:url(#SVGID_00000135655537085378850470000000294604185866274471_);" d="M622.579,230.625
			c4.153-4.816,6.622-11.126,6.472-18.019c-0.299-13.741-11.278-25.207-24.996-26.057c-15.519-0.962-28.405,11.34-28.405,26.651
			c0,0.192,0.01,0.381,0.014,0.572c-3.376-3.796-8.283-6.201-13.763-6.201c-1.436,0-2.827,0.18-4.169,0.491
			c-1.169-12.094-11.351-21.55-23.748-21.566c0.005-0.205,0.015-0.408,0.015-0.613c0-14.788-11.988-26.776-26.776-26.776
			c-11.945,0-22.059,7.823-25.508,18.624c-6.85-11.696-19.832-19.364-34.539-18.568c-18.616,1.008-33.862,15.85-35.371,34.433
			c-0.419,5.161,0.222,10.118,1.706,14.695c-6.168,2.647-10.491,8.772-10.491,15.91c0,4.218,1.512,8.081,4.019,11.084
			c-13.838,1.104-23.411,3.476-23.411,6.225c0,3.803,256.204,4.48,256.204-1.608C639.833,236.008,632.953,232.586,622.579,230.625z"
			/>
		
			<linearGradient id="SVGID_00000126301722499968442020000008045038861620660657_" gradientUnits="userSpaceOnUse" x1="424.0908" y1="267.7377" x2="424.0908" y2="150.5212">
			<stop  offset="0" style="stop-color:#A0DCFF;stop-opacity:0.6"/>
			<stop  offset="1" style="stop-color:#FFFFFF"/>
		</linearGradient>
		<path style="fill:url(#SVGID_00000126301722499968442020000008045038861620660657_);" d="M583.945,248.9
			c-0.572-11.352-9.931-20.388-21.425-20.388c-0.027,0-0.054,0.004-0.081,0.004c-5.036-8.705-14.441-14.567-25.222-14.567
			c-3.873,0-7.567,0.763-10.947,2.135c-6.673-8.292-16.9-13.603-28.372-13.603c-15.426,0-28.601,9.598-33.904,23.144
			c-3.523-2.527-7.828-4.031-12.494-4.031c-2.977,0-5.813,0.607-8.39,1.702c-0.354-15.778-13.246-28.461-29.109-28.461
			c-4.516,0-8.792,1.028-12.607,2.863c-1.401-1.744-3.549-2.863-5.96-2.863c-2.993,0-5.578,1.724-6.833,4.23
			c-6.572-9.483-17.527-15.698-29.938-15.698c-12.275,0-23.124,6.082-29.718,15.39c-0.645-0.058-1.295-0.099-1.956-0.099
			c-11.863,0-21.48,9.617-21.48,21.48c0,1.867,0.263,3.668,0.711,5.395c-8.542,1.945-15.492,8.059-18.603,16.091
			c-0.038,0-0.074-0.006-0.112-0.006c-8.025,0-14.671,5.835-15.971,13.49c-0.083,0-0.164-0.002-0.247-0.002
			c-12.615,0-22.842,3.664-22.842,8.183c0,4.519,351.292,2.739,351.292-1.611C599.737,257.733,592.882,249.476,583.945,248.9z"/>
		
			<linearGradient id="SVGID_00000072985783371276690460000016475295781350597034_" gradientUnits="userSpaceOnUse" x1="528.9587" y1="103.3689" x2="528.9587" y2="27.6307">
			<stop  offset="0" style="stop-color:#A0DCFF"/>
			<stop  offset="1" style="stop-color:#FFFFFF"/>
		</linearGradient>
		<path style="fill:url(#SVGID_00000072985783371276690460000016475295781350597034_);" d="M646.178,99.859
			c4.392-5.093,7.002-11.765,6.843-19.054c-0.316-14.531-11.926-26.655-26.432-27.555c-16.411-1.017-30.038,11.991-30.038,28.183
			c0,0.203,0.011,0.403,0.015,0.605c-3.57-4.014-8.759-6.557-14.554-6.557c-1.518,0-2.99,0.191-4.408,0.519
			c-1.236-12.789-12.004-22.788-25.113-22.805c0.005-0.216,0.016-0.431,0.016-0.649c0-15.638-12.677-28.315-28.315-28.315
			c-12.631,0-23.327,8.273-26.974,19.695c-7.243-12.368-20.971-20.477-36.524-19.635c-19.686,1.066-35.809,16.761-37.404,36.412
			c-0.443,5.458,0.235,10.7,1.804,15.54c-6.523,2.799-11.094,9.276-11.094,16.825c0,4.461,1.599,8.545,4.251,11.721
			c-14.633,1.167-24.757,3.676-24.757,6.583c0,4.021,270.929,4.738,270.929-1.701C664.423,105.551,657.149,101.933,646.178,99.859z"
			/>
		
			<linearGradient id="SVGID_00000030478852371733739400000000120523363518870933_" gradientUnits="userSpaceOnUse" x1="286.3263" y1="344.6986" x2="286.3263" y2="427.6537">
			<stop  offset="0" style="stop-color:#FFFFFF"/>
			<stop  offset="1" style="stop-color:#91D3FF"/>
		</linearGradient>
		<path style="fill:url(#SVGID_00000030478852371733739400000000120523363518870933_);" d="M339.798,406.444
			c1.48-3.022,2.313-6.417,2.313-10.009c0-7.826-3.947-14.729-9.957-18.832c-2.16-18.525-17.896-32.904-37.001-32.904
			c-18.487,0-33.822,13.466-36.75,31.124c-3.694-1.653-7.857-2.445-12.241-2.094c-11.572,0.928-21.141,9.945-22.713,21.447
			c-0.544,3.982-0.129,7.804,1.02,11.292c-9.7,0.671-17.11,4.225-17.11,8.521c0,4.775,157.934,4.352,157.934,0.795
			C365.293,412.612,354.286,406.978,339.798,406.444z"/>
		
			<linearGradient id="SVGID_00000006704671007951485760000012064096078596436878_" gradientUnits="userSpaceOnUse" x1="509.6053" y1="404.2805" x2="509.6053" y2="347.3006">
			<stop  offset="0" style="stop-color:#A0DCFF"/>
			<stop  offset="1" style="stop-color:#FFFFFF"/>
		</linearGradient>
		<path style="fill:url(#SVGID_00000006704671007951485760000012064096078596436878_);" d="M586.137,391.902
			c-0.219-12.146-11.486-21.934-25.362-21.934c-2.567,0-5.043,0.338-7.379,0.961c-4.54-13.239-17.087-22.759-31.865-22.759
			c-15.672,0-28.844,10.703-32.607,25.198c-4.191-2.151-9.145-3.4-14.457-3.4c-12.782,0-23.504,7.203-26.445,16.918
			c-21.063,0.744-38.093,7.152-37.521,14.9c0.423,5.731,198.222,3.054,198.222-1.598
			C608.723,396.049,598.978,392.611,586.137,391.902z"/>
	</g>
</g>
</svg>
